#!OML:ASF F:\VICON\USERDATA\INSTALL\rory3\rory3.ASF
:FULLY-SPECIFIED
:DEGREES
68
root 0.7232734045395108 17.929004491084665 20.450460734713666 -3.7704809463321687 -4.605890476966223 -0.2542373385307326
lfemur -11.333660102592031 -3.033102226315722 -23.678295886770513
ltibia 25.480389496294112
lfoot -7.424644090441472 -3.260427272717286
ltoes -12.190761521678871
rfemur -15.54334376195411 0.11251195877965792 21.992760494217492
rtibia 69.71398925779647
rfoot -2.521644010782886 -7.549431403256893
rtoes 7.120198293526537
lowerback 10.882408633227982 2.2973284533167444 0.3607494269632501
upperback 0.6322729667138406 2.9971950606942332 0.3587859432459999
thorax -5.580425463766634 1.4194843497823053 -0.2716322781133098
lowerneck -15.444067488308908 -2.5093421153499036 -1.6148602186171306
upperneck 24.161713934937843 -2.965640642737243 -0.3621948539597557
head 10.459163546756278 -1.6094196778121321 -0.4822203721156417
lclavicle -1.3815050867330863e-15 -1.8387537134213204e-15
lhumerus -31.97765603957822 5.088381520513517 79.84590241441322
lradius 25.078262290872605
lwrist 2.9968129059674444
lhand -26.501080159095228 23.454306421699545
lfingers 7.125019999999999
lthumb 0.05732225962541482 53.517330359225426
rclavicle -1.3844321892034316e-15 -1.8409140655529487e-15
rhumerus -28.534396685897054 -22.99927141813836 -75.09407814659318
rradius 22.366219953316516
rwrist 7.627977730954728
rhand -17.83048140083901 22.05290628953893
rfingers 7.125019999999999
rthumb 8.304295460194037 -8.003259478049172
69
root 0.7263422881118922 17.938738282365808 21.032534274587682 -3.9243071983287767 -4.135983831630844 -0.29877960159391326
lfemur -8.503555947424548 -2.9816637757907998 -23.973320732495843
ltibia 25.145438711402175
lfoot -7.657090644595321 -2.541729519090656
ltoes -12.233847851514549
rfemur -19.55141466430248 -0.9251782767731118 22.223627745677966
rtibia 70.65616951878614
rfoot -4.338446873833876 -6.55704474233744
rtoes 6.670300505084853
lowerback 10.94839990807543 1.8163196131511683 0.27601442722028435
upperback 0.7723368152935717 2.398672341541958 0.48455238892260133
thorax -5.719747491098833 1.1356723700451261 0.0957093422690074
lowerneck -15.323887346497578 -2.371855260585092 -1.7575162546032463
upperneck 24.268157994521275 -2.681140340978805 -0.45933590370946853
head 10.484729705502486 -1.5140185969041324 -0.4502249104575187
lclavicle -1.3822418698153176e-15 -1.8395049792196887e-15
lhumerus -31.271976506937964 4.393281906868881 80.01802413203076
lradius 26.56871345894674
lwrist 3.856271234811349
lhand -26.637818104677244 24.051628912548125
lfingers 7.125019999999999
lthumb -0.0725329199788477 54.11502948954591
rclavicle -1.3838996288478875e-15 -1.8404187242532953e-15
rhumerus -29.412834219910273 -23.338800692604742 -74.74667978065042
rradius 22.323371283761695
rwrist 7.029434509050081
rhand -17.67816737155922 22.05749665014326
rfingers 7.125019999999999
rthumb 8.44919047144298 -8.015589226244966
70
root 0.70740793153352 17.91478366774898 21.79741768015201 -3.946178449764001 -2.99699896521292 -0.007751808617648681
lfemur -5.962710351084078 -3.2127707414678475 -24.617960690397855
ltibia 24.75464361700633
lfoot -7.926821421665659 -2.9696737286006023
ltoes -13.308618357621903
rfemur -23.372167201246306 -2.082268187466969 22.178688269308083
rtibia 69.31156018118728
rfoot -5.9702205960305115 -6.180256383545909
rtoes 6.859178954763397
lowerback 11.073739959055173 1.1696662584947246 -0.16175346240822397
upperback 0.7795128735488004 1.5559011335060395 0.6065207643841566
thorax -5.882106323217252 0.747962303414015 0.6047417162541725
lowerneck -15.283875896904593 -2.334913603063349 -1.9637835133048211
upperneck 24.3223783671558 -2.5654294974815586 -0.45201842548651333
head 10.490102703327643 -1.4739143270504516 -0.3959217177755857
lclavicle -1.3845370568421144e-15 -1.8413090887097996e-15
lhumerus -30.74133467635932 3.634832063985156 80.1206192355121
lradius 28.292659643087866
lwrist 4.624406920052153
lhand -26.82324780669726 24.613711703342997
lfingers 7.125019999999999
lthumb -0.2132865254455315 54.719415159690236
rclavicle -1.3834685189432787e-15 -1.840017576239353e-15
rhumerus -30.398553370711575 -23.434077282494243 -74.35612044886675
rradius 22.479255323612243
rwrist 6.174233255676612
rhand -17.6388985847441 22.14316079096101
rfingers 7.125019999999999
rthumb 8.494771735717972 -7.907450806135141
71
root 0.7031722045263632 17.87335556060393 22.545603437340585 -4.065427118654549 -2.1451108843839517 0.38355622974982495
lfemur -3.4663342169816653 -3.3476960978531283 -25.30506650362731
ltibia 24.161515812543705
lfoot -7.98020685123791 -3.1457848922909277
ltoes -14.02727043276029
rfemur -26.56723107579293 -2.54793946014928 22.072998846279994
rtibia 65.58673301806797
rfoot -6.929155049953486 -6.93465966401407
rtoes 7.24861208337345
lowerback 11.38059011560074 0.5915184127987445 -0.7969150556976343
upperback 0.7279620496682286 0.7322574967496448 0.7475270359776064
thorax -5.989777038673626 0.37059993201584585 1.1688807587263446
lowerneck -15.30379432645844 -2.3789622731872067 -2.219027701550886
upperneck 24.268052593366992 -2.592010696297458 -0.3231011300140973
head 10.462173270258493 -1.4773943528748643 -0.3162980352687728
lclavicle -1.3861933509758653e-15 -1.8426238683651103e-15
lhumerus -30.151321467623863 3.098748924681612 80.24999390377623
lradius 29.930588830240143
lwrist 5.485422296555817
lhand -27.101410854309954 25.026496976322175
lfingers 7.125019999999999
lthumb -0.4007100762165484 55.26683421106598
rclavicle -1.3845491716596432e-15 -1.841021334933445e-15
rhumerus -31.22666332159436 -23.139991456375345 -74.44504004420058
rradius 22.84314249350468
rwrist 5.384666737058884
rhand -17.67200243962717 22.16465063111247
rfingers 7.125019999999999
rthumb 8.485460989480371 -7.843652335010526
72
root 0.6788343478265202 17.83907503420708 23.383725412677194 -3.943163377709789 -1.4452306822508352 0.8914755668090049
lfemur -0.970717039633449 -3.3425560703153154 -26.044346141729797
ltibia 23.01772541832753
lfoot -8.683321814289032 -2.692668823151452
ltoes -14.83305066600071
rfemur -29.031898250270256 -2.7251885151725004 21.856839921485495
rtibia 59.432934057768975
rfoot -6.626686110590449 -8.35254070659298
rtoes 7.6441340631571135
lowerback 11.567711765749094 0.15576692513180346 -1.571667580522841
upperback 0.7634918755402683 0.061843303147395445 0.839598060007221
thorax -5.8963156294117915 0.05829603298477651 1.7483172164462983
lowerneck -15.347135723979521 -2.4482158159382106 -2.4522928699526325
upperneck 24.11224211208959 -2.679530896481998 -0.12301190833039452
head 10.402604955110592 -1.4965613497311765 -0.22048612241314497
lclavicle -1.384894764658818e-15 -1.8416338960713204e-15
lhumerus -29.581686647529864 2.759182359264301 80.40074483288741
lradius 31.311059176677087
lwrist 6.204186055540438
lhand -27.394180220894228 25.287360159837363
lfingers 7.125019999999999
lthumb -0.6289436082925999 55.63562215106446
rclavicle -1.385338715346576e-15 -1.8417540051378034e-15
rhumerus -31.939906268147393 -23.084997357544832 -74.04786207959401
rradius 22.740698439373034
rwrist 5.273897464170632
rhand -17.717467463290628 22.15216731660979
rfingers 7.125019999999999
rthumb 8.464905449080044 -7.843559073189928
73
root 0.6604670483171026 17.822331135187966 24.12291819564988 -3.6139701375754756 -1.1029176889358911 1.8502654239959342
lfemur 2.0953769610012625 -2.8800619529740557 -27.089710533339087
ltibia 20.176542420550195
lfoot -8.709976501166798 -1.8105876197110227
ltoes -14.759257883061332
rfemur -30.785948082036064 -2.720879162887578 21.137448561946886
rtibia 51.35917080370224
rfoot -5.58694787455976 -10.07002715579755
rtoes 7.4382546571917985
lowerback 11.52519837656603 -0.1412394143479337 -2.6005559033541035
upperback 0.8160535239187776 -0.4104924326688383 0.8313605518548554
thorax -5.657866734348156 -0.16230663025042735 2.2713864823966063
lowerneck -15.38079628838992 -2.521067303811374 -2.6341462625615284
upperneck 23.9362708032438 -2.79011114829029 0.12376795560899137
head 10.344066963453397 -1.5204662512703804 -0.11319808407084786
lclavicle -1.3824785404639875e-15 -1.8399599574138414e-15
lhumerus -29.203576187978364 2.5200615923281893 80.50139839186366
lradius 32.42792402503732
lwrist 6.592881428318419
lhand -27.64879754169427 25.43048205570054
lfingers 7.125019999999999
lthumb -0.8990685269129479 55.75469028572647
rclavicle -1.3853675210676879e-15 -1.8417796512127437e-15
rhumerus -32.84490616176982 -23.609637259222982 -73.81014128580803
rradius 22.662932708026627
rwrist 5.537332824104516
rhand -17.73452982451135 22.212844987520707
rfingers 7.125019999999999
rthumb 8.461990081905105 -7.7804069036957815
